
<global>
amp_veltrack=0
ampeg_release=0.45
</global>

<group>
group_label=Group_43-84
lpc_hicc1=84
lpc_locc1=43

<region>
hikey=a#2
hivel=127
lokey=a2
lovel=0
lpc=2hjbQlUS1MOCrDREfhA4xCJDBEQoMZ7DwSFAQ5yXA8OhVb5CY3iRwrXaeUL0+zvCxfyTQZkfIkHhNuHBznsNQvIPIMJoSjpCGCIswgeK40FZWF/BW2OHPzRCkkCMhO2/
lpc_rms=-37.79
pitch_keycenter=a#2
sample=Horn_marcato_quarter_MF_A#2.opus
</region>

<region>
hikey=a#3
hivel=127
lokey=a3
lovel=0
lpc=l+4GQ470CsQrsnhEDuWAxD30NUTPTt/Dn1ufQyPIbsPqqgpDwoBHwsvwJUHAFOLB3aeCQnw4V8IxxFbBTiWRQgOkhsLA1S5B4ivvQQkK5cEmSIRBGCNYwSj1LEEN0nPA
lpc_rms=-34.47
pitch_keycenter=a#3
sample=Horn_marcato_quarter_MF_A#3.opus
</region>

<region>
hikey=a#4
hivel=127
lokey=a4
lovel=0
lpc=iGGHQ5WaksR2khFF424xxfnNF0WshcfET9dTRH/YqMMh9klBg+c5Q9SIe8Mz4T5DWdlfwm8Lg8IGUqNCoPSCQb7I+8K3JTVDjwxbw9+kk0M+zsfD1crNQzrkf8MYEI5C
lpc_rms=-26.16
pitch_keycenter=a#4
sample=Horn_marcato_quarter_MF_A#4.opus
</region>

<region>
hikey=c3
hivel=127
lokey=b2
lovel=0
lpc=DATVQidOw8P3zRdEbkcFxCxynEPksyHDClzOQggVlsItz0FC2/S4wdczXkDfuExACBACPz4zUUCqzY/Bu7S7QUomJMEAGjI/AFoVwIZtKL/1/UVA/yYJQI2Li8CkYck/
lpc_rms=-41.77
pitch_keycenter=c3
sample=Horn_marcato_quarter_MF_C3.opus
</region>

<region>
hikey=c4
hivel=127
lokey=b3
lovel=0
lpc=aKLmQs6S8cP4JmhEUSqNxMAfgEReyELEV2oHROgMt8PqlHZDYC4jw349zEJf6XTCi84UQlkyk8EXGSxA4+4+QelxBsK8qlFC+EhhwiYCSkJLVRfCkkSYQc62iMBBfYi9
lpc_rms=-32.66
pitch_keycenter=c4
sample=Horn_marcato_quarter_MF_C4.opus
</region>

<region>
hikey=c5
hivel=127
lokey=b4
lovel=0
lpc=loEZQ6wFEMQtpYdEGi2xxA+1ukQiXqvEVZOPRH+aYcTMSCVESRPjwzTsmkMABFDDJoDTQlF/AEHFuMnCSS8NQwnu0sKQ+iBCZXUJwlp5uEK+5QrDYNkHQweSscIAvfRB
lpc_rms=-27.18
pitch_keycenter=c5
sample=Horn_marcato_quarter_MF_C5.opus
</region>

<region>
hikey=d3
hivel=127
lokey=c#3
lovel=0
lpc=W7lnQqZIXsMJg89DuCMGxGEIDkSB5gTEOafiQzwQtMO8OYZD6Bw6w2+x8kKhX5LC+xgGQjY420Bn3j7Cb0OdQjtzssJsAKFCZa5zwszyGULU2aTBx+IdQYiDbcAIpEw/
lpc_rms=-36.52
pitch_keycenter=d3
sample=Horn_marcato_quarter_MF_D3.opus
</region>

<region>
hikey=d4
hivel=127
lokey=c#4
lovel=0
lpc=GwfHQom8vsNnbzFEfPRlxCfgeETr/XXEAXxmRL4NU8Sz8EFEIpYvxKqdF0RWj/bDfPy8Q+B+iMP38jtD+QsCw4MR1kJYOdfCOH/QQt9hs8I37JRCuTJawuxYy0FjN5DA
lpc_rms=-28.17
pitch_keycenter=d4
sample=Horn_marcato_quarter_MF_D4.opus
</region>

<region>
hikey=d5
hivel=127
lokey=c#5
lovel=0
lpc=G6IqQhVwH8PdJZNDcwW9w8ZayUMkm8PD6Ke4Q2tZrcN2vp5DmFOLw7gsbUOuSULDujMTQzMJwcJamDpCVkf8v5TS1cGqJBNCSOgfwmXbMkLPfzrCTqkjQujDzcEEEghB
lpc_rms=-34.59
pitch_keycenter=d5
sample=Horn_marcato_quarter_MF_D5.opus
</region>

<region>
hikey=e3
hivel=127
lokey=d#3
lovel=0
lpc=K3StQgirp8MJ7hZERpAzxLvTK0Qm7BPEYCbtQ6KvssOhyYJDW8ZDw0DrE0O99sbC6zdfQmLQjsHjedrBkl6IQhOmssJUs8tCZE7Xwml/tEIiH1rCxr3AQRr6CMFgJhVA
lpc_rms=-34.77
pitch_keycenter=e3
sample=Horn_marcato_quarter_MF_E3.opus
</region>

<region>
hikey=e4
hivel=127
lokey=d#4
lovel=0
lpc=ndmGQk4Kh8Nq0QJE9Q4uxGTyPURYnznE8f4lRNsACcQ8F9VD85+hw/7mf0Nc2lbDz14xQ+YxB8MhgZlCtL9uwP7TMsKSuFpCPXlHwo2qGEIum5HBGnUoQAZpnT+b1rK+
lpc_rms=-32.21
pitch_keycenter=e4
sample=Horn_marcato_quarter_MF_E4.opus
</region>

<region>
hikey=e5
hivel=127
lokey=d#5
lovel=0
lpc=qY6/QpJapcMArQpEUO4cxEBhFERwrgHEKDHVQ/oUrcP5kppDD1uPwxTHb0N3AzbD+jQGQ1aYfsL5fJ/BawCYQkM8xcINvspCN7qhwhcITkLePgzCIgk5QrP6Q8L2a7ZB
lpc_rms=-32.49
pitch_keycenter=E5
sample=Horn_marcato_quarter_MF_E5.opus
</region>

<region>
hivel=127
key=f#2
lovel=0
lpc=XmwOQ83BAsT5LkhEoUspxMHYwkOqbGXDp6MeQ8Qxn8JDoqVBRc1uwfeT2UHA/obBKpaRwIXFSEH1kg3BhXrsQFLWF8HZh5VBDwENwkjUBUKW6irBuVgPwPOlG7+9/+o/
lpc_rms=-39.27
sample=Horn_marcato_quarter_MF_F#2.opus
</region>

<region>
hikey=f#3
hivel=127
lokey=f3
lovel=0
lpc=JqD8QooH98PUZFxEOsd3xERiUUSEQBfEF+3DQ6bEWsNuZ9NCKAFhwimYFkJHVqnBySXuQIFgBkFMkiLChwOVQjLWnMLBTIBCgE1RwgLx8kH96k7AmLvtwCLIZUDyu4E+
lpc_rms=-35.13
pitch_keycenter=f#3
sample=Horn_marcato_quarter_MF_F#3.opus
</region>

<region>
hikey=f#4
hivel=127
lokey=f4
lovel=0
lpc=7kegQhjBmsPzGBFE9OQ5xPZeQUR7CDbEXb0iRFUiCsS9idlDXRGcwz98SEM6RN/CXSRhQlBSrcFaHWbBI8JiQtGyrcJYQbJCt1uXwtUtekJ45VPC3xMjQpvPscFspshA
lpc_rms=-28.81
pitch_keycenter=f#4
sample=Horn_marcato_quarter_MF_F#4.opus
</region>

<region>
hikey=F2
hivel=127
lokey=C2
lovel=0
lpc=nJUIQ+t97sPZxyNEYy/Zw8ZvHkNJw7jCuiCjQgaVvsE454HAWmP9wHXxh0GWijXB2ykLwP3CHEHM0OvA6UfhQF7MEcH8c65AnBv3P/cpJMGRzmBBeRbdwOsg078e6fU/
lpc_rms=-42.50
pitch_keycenter=F2
sample=Horn_marcato_quarter_MF_F2.opus
</region>

<region>
hikey=g#2
hivel=127
lokey=g2
lovel=0
lpc=3BElQ1wIAcTTKxREveeTw0YtnkLbjIjCfiaTQisoB8LIt7Y+nTnvvwt0aUHkyk/BQJTXQKPIDMCGfqnA5DipQCrFsD4usPlAIhxLwZXMi79QIjNBW2I4wbln3kBtYqO/
lpc_rms=-43.94
pitch_keycenter=g#2
sample=Horn_marcato_quarter_MF_G#2.opus
</region>

<region>
hikey=g#3
hivel=127
lokey=g3
lovel=0
lpc=LhnqQkVa88Okd2VE7H6ExG0HWEQlOAvEL5GfQ2gnLcOoSZhCAx+DwDMYGcJqIxJCwhj6v75SO8E7PajBigFfQsFvOMJ4Dv9AhzklPy6AIELiR5/C6dKQQsVxDcJOePpA
lpc_rms=-35.24
pitch_keycenter=g#3
sample=Horn_marcato_quarter_MF_G#3.opus
</region>

<region>
hikey=g#4
hivel=127
lokey=g4
lovel=0
lpc=xRakQiqpmsN2aRBEuCpAxEDwWET2ZGPE9AllRD2vW8SJVEVEqWYnxLiWCETIeNPDgOOVQzQjO8Np4LpCNvsewR6FasI8fcxCt1n4woEr6ULRI6fCVFFMQu/G5MH9SR9B
lpc_rms=-26.92
pitch_keycenter=g#4
sample=Horn_marcato_quarter_MF_G#4.opus
</region>
</group>

<group>
group_label=Group_0-42
lpc_hicc1=42
lpc_locc1=0

<region>
hikey=a#2
hivel=127
lokey=a2
lovel=0
lpc=XQr7QmfvjMPGxBpDEYlDwH2xMUKeBgfCpIZ8v4Y4A8H12iJAuOy9vySbeD8+UoLAR8k2QDl7hkCS4pxAUfQwwJX8dcAJsB3At+KnQEBfacBPMZi/e+xHwMGtF0EdLYPA
lpc_rms=-52.68
pitch_keycenter=a#2
sample=Horn_marcato_quarter_PP_A#2.opus
</region>

<region>
hikey=a#3
hivel=127
lokey=a3
lovel=0
lpc=WK6qQzrgbMRqM1REJsWXw3H3W0PAFFfDKsc/QgXyw0G9iBHCs3zmPm95BULV6Ym/N2vWwRceh0G7Y8JBECIiwnUDv0AtgO1AeTCFQNYGM8Cek45AGO2zwQ+t2kGbQCHB
lpc_rms=-39.41
pitch_keycenter=a#3
sample=Horn_marcato_quarter_PP_A#3.opus
</region>

<region>
hikey=a#4
hivel=127
lokey=a4
lovel=0
lpc=ZQBzRBSRK8WgOyhFJtKCxIgoyEPZr9bD6pELQzMPHEKb3CBBO9OYwkGuykFDsYFCXVSLQNY7OcIfxk9CgCN9wngFosHrcIXBZLMyQ8nHvcKjJP/Ct+giQyyW4MIRVGlC
lpc_rms=-30.08
pitch_keycenter=a#4
sample=Horn_marcato_quarter_PP_A#4.opus
</region>

<region>
hikey=c3
hivel=127
lokey=b2
lovel=0
lpc=BnYNQ7YyrMPLbXJDakcXwupa+UEOii7CmTCBQTUbcMDLUmk/GisHwd5VNUDdz0ZA5ON5QIuqwL+Sf0m+MtpmPQhLrsBGD3JALHiWv+7Uzz/MZZY/k746wOLgl7/2WhhA
lpc_rms=-50.09
pitch_keycenter=c3
sample=Horn_marcato_quarter_PP_C3.opus
</region>

<region>
hikey=c4
hivel=127
lokey=b3
lovel=0
lpc=skWaQ8VwXcTlH0pEosxXw4Ejq0LCKCfDKDhBQtk7UUGE6qxBL2AowYm9CsC0Sn/AS1qlwUdXBEHiFOlB/kGjQMUYrcFc1DjBJGFBwJCsu0FKFzTB/B9hQS0+pcHQehBB
lpc_rms=-40.76
pitch_keycenter=c4
sample=Horn_marcato_quarter_PP_C4.opus
</region>

<region>
hikey=c5
hivel=127
lokey=b4
lovel=0
lpc=FZ9OQ7MeMMTQZnFE2bcnxF91nUM3H3DDhG5MQ66gs8JEcvFBoHiTQUgQ68IWDfNC64QJwYmHFMIk2INBT19bwq+Zi0K+kudBQIOnwsyWmEE9yZFAkzptQh0UncKoVPlB
lpc_rms=-38.00
pitch_keycenter=c5
sample=Horn_marcato_quarter_PP_C5.opus
</region>

<region>
hikey=d3
hivel=127
lokey=c#3
lovel=0
lpc=Tbl6Q0wUKMQTMBBEUbIew2TdfELXg8/CV19OQsfwhUAa3/LAgnc1wUQLn0Bad4VBIE6xwZ1xKkF8ILxAZDd2wRtlB0DWwsDAHXeBQS87m0CvP2FAziyHwWCDpsDlzxhB
lpc_rms=-43.14
pitch_keycenter=d3
sample=Horn_marcato_quarter_PP_D3.opus
</region>

<region>
hikey=d4
hivel=127
lokey=c#4
lovel=0
lpc=fSE5Q7AnAsSqefZDpKZMw72k3kKskrTCpdFKQrFNbMFAC8fBbGiHwXIdC0I9z05B94FWwYJhlEEfz7jBl5BswZorgEErpJE/1FHxwF6go0FNs0XBLLSkQKILRMEldt5A
lpc_rms=-44.35
pitch_keycenter=d4
sample=Horn_marcato_quarter_PP_D4.opus
</region>

<region>
hikey=d5
hivel=127
lokey=c#5
lovel=0
lpc=odhzQ4k8TsSJEpJEWOpgxMnx7UOejovDD2c6Q46FtsLKz2RCPKuCwjPMHkKhkNxBEfijwgTwlUKSqt4/UZCSwiqVZUJH+mQ/5j8DPxpYxr8gepLCn1YRQ0OJ88J6wS9C
lpc_rms=-37.13
pitch_keycenter=d5
sample=Horn_marcato_quarter_PP_D5.opus
</region>

<region>
hikey=e3
hivel=127
lokey=d#3
lovel=0
lpc=PmR5Q2IKLMQGpxVE3RUrwyXc0UIi6vzCqMHZQf5Sj0BsiwvAb+6CwU4P7EFwzNlA+M4Jwl3Lk0H0YphBk76TwRywH8GGfxxBYrxDQR6qr8GkFN8/9H5JwJ/fu0FyNEzB
lpc_rms=-42.83
pitch_keycenter=e3
sample=Horn_marcato_quarter_PP_E3.opus
</region>

<region>
hikey=e4
hivel=127
lokey=d#4
lovel=0
lpc=3cKRQzjeVsT7Al5EjR7Ww35YdUPRuTfDFXemQfytBkKXyRW/S0H5wRl230H7ALlBLxwQwtMmCcCZTuNBfVPCwR8GU0FaSIPAp3mLv84oVcEal/fAbHCYQjbYsMIDjARC
lpc_rms=-39.32
pitch_keycenter=e4
sample=Horn_marcato_quarter_PP_E4.opus
</region>

<region>
hikey=e5
hivel=127
lokey=d#5
lovel=0
lpc=OsdNQ5u6H8RBzlBEnJ0ZxNA5vEPYU5/Dw9aTQ7CIWsOBvRlDb8cLw4hg/EJZ2lvCCFV0wRbimkE/iwpBQ87FwSZ260HYY4FBNgtPwmUe2UE1uBjCa5HCQuC/tcK5qAlC
lpc_rms=-35.28
pitch_keycenter=E5
sample=Horn_marcato_quarter_PP_E5.opus
</region>

<region>
hivel=127
key=f#2
lovel=0
lpc=NZ4ZQ45jwcO+f4xD4YUOwlpkA0LnGnTClUMlQRKhDkB61/NAg04hwP18G0B8KcjAf29EQJpdDMBCNsBAhhC0wN2kJL4PtuI/riFZQPDTAMHAepZAh+00vs3dZ7/UZGo/
lpc_rms=-49.13
sample=Horn_marcato_quarter_PP_F#2.opus
</region>

<region>
hikey=f#3
hivel=127
lokey=f3
lovel=0
lpc=/XYsQ4RC+sMXTflDuTxIw2G/k0IusZXC0KNAQmWy08FeZwZAcurMQAEgr0DvEptApV2dwdcHEUE2zxVBe9YQwVdRZMDPL3y/V4v9QCvTKz8ucr5AZYB9wQZ6iUDJ6R1A
lpc_rms=-44.62
pitch_keycenter=f#3
sample=Horn_marcato_quarter_PP_F#3.opus
</region>

<region>
hikey=f#4
hivel=127
lokey=f4
lovel=0
lpc=7Gs2QxTVDcS4YRxEPiKVw5oZC0My7wXDxI8JQveBDkI/pkjBVY9cwZthLEDwoIZBNLhCwRFF0kAQBDpAOPdmwTYuK0BtSbRAqK2GwHJCfUA+h4rBQ1BuQmbVisK3xNNB
lpc_rms=-42.66
pitch_keycenter=f#4
sample=Horn_marcato_quarter_PP_F#4.opus
</region>

<region>
hikey=F2
hivel=127
lokey=C2
lovel=0
lpc=ACv0QjsqnsPxP3ZDKyYywsD38UGUEk/Cb2Q3QXcJLsCK/AVBzCMBwaQe4ECPqCo/y0QYP5eJk8C+YLA/s9I8P2MNED94o/2/CpTJP0jb47/tWApAgCoIv8nXtL8j2os/
lpc_rms=-50.25
pitch_keycenter=F2
sample=Horn_marcato_quarter_PP_F2.opus
</region>

<region>
hikey=g#2
hivel=127
lokey=g2
lovel=0
lpc=lvfxQncCqcP7X5tD45PQwu/6TEKvMnHCBvmQQXQFE8Ah8hdBjOMEwdDswD6FmqRAq5cswFjOZ74XTuM/7jBvwF0xu0AbtDnAcpKLP1C+qsCGrAo/Vsp4QAqkwz+nSw3A
lpc_rms=-48.56
pitch_keycenter=g#2
sample=Horn_marcato_quarter_PP_G#2.opus
</region>

<region>
hikey=g#3
hivel=127
lokey=g3
lovel=0
lpc=Ui1jQyjQG8RPbAtEKFwyw8HJnUJr3NXCwrdLQpUVuUBg3f3A7NvfwPNoAcGFP8lAGKyOQfa6hMGDO9BAP8t4QFXE2sDWC6bAHV0hQbiK3sDI9DVA+owcQJwYGMEP4dpA
lpc_rms=-43.42
pitch_keycenter=g#3
sample=Horn_marcato_quarter_PP_G#3.opus
</region>

<region>
hikey=g#4
hivel=127
lokey=g4
lovel=0
lpc=Gmg+RC+1C8Wd3AdFvRApxChDSUMGU7fD09uzQqCJKb8hT4dCqWjUv5xZ3sD7x6hBZT3FQO8z7MFiKIdANBg0wmUiUkKVYWpA8qkhwh+0LUGDqblBg06GQvf9E8O+MZVC
lpc_rms=-32.11
pitch_keycenter=g#4
sample=Horn_marcato_quarter_PP_G#4.opus
</region>
</group>

<group>
group_label=Group_85-127
lpc_hicc1=127
lpc_locc1=85

<region>
hikey=a#2
hivel=127
lokey=a2
lovel=0
lpc=CqyrQQoEg8KZ3MFCJXXVwk0q1kKvs8zCiNK9QuYxrcKwpJpCdDmGwoIPZ0IXkkDCMeUZQupe78EuMLhB/Y6HwfH5L0GPya3AO42LP/CQpj/6FwzAjAM6QNnyPcCLybo/
lpc_rms=-33.85
pitch_keycenter=a#2
sample=Horn_marcato_quarter_FF_A#2.opus
</region>

<region>
hikey=a#3
hivel=127
lokey=a3
lovel=0
lpc=BFUYQRtMp8H7gadBqAKPwTwQhkHbgnLB72pdQZijVMFzozlBw4MVwTkG3EAcjnHAFZ+GP+6C9j8vL2LABPFkQIDGdMC8H5VAAzKKwCSwZkCS3UjAVVQbQHBdxb9juQY/
lpc_rms=-29.32
pitch_keycenter=a#3
sample=Horn_marcato_quarter_FF_A#3.opus
</region>

<region>
hikey=a#4
hivel=127
lokey=a4
lovel=0
lpc=iPQWQWhPoMGoDKJBwV2JwagZdEFfo0jBxe4hQWEEAsEE7cVA6fHJwHRYrkC3vBTAMs33PWdk8z/AfETAeTZCQASuh8CeGqRAv5hkwG67FEBUBru/m3GFP6Rpeb+Afk4/
lpc_rms=-24.60
pitch_keycenter=a#4
sample=Horn_marcato_quarter_FF_A#4.opus
</region>

<region>
hikey=c3
hivel=127
lokey=b2
lovel=0
lpc=TPY5QcWj9MHgNxxCaN8bwrY2FEJNTQfC/KLtQUvyy8GS56lBmjaIwXbGTkGxvBLBVCjHQI5FUMCjfS0/JQi7P2efR8Dl53NAkMdPwA+SAEBXyq6/2699P6BJCL9XGKk+
lpc_rms=-37.98
pitch_keycenter=c3
sample=Horn_marcato_quarter_FF_C3.opus
</region>

<region>
hikey=c4
hivel=127
lokey=b3
lovel=0
lpc=R7SnQATlJ8HflR1BrTwCwZmT30DmsLPAY0uSQIMpecBXxU1A+fMtwJGbNUBqbjbAFQE0QHFyD8BLcIk/x/aiPkZCr7/mxM8/laSlv/nDMD+eQZO+nnY2PtDOCD7suBm+
lpc_rms=-32.49
pitch_keycenter=c4
sample=Horn_marcato_quarter_FF_C4.opus
</region>

<region>
hikey=c5
hivel=127
lokey=b4
lovel=0
lpc=LYUEQc8fmcGzNrBB6CmjwbHSlEFQiobBsfh7Qdtjb8G50DlBrEXzwG8EvEAkaW7AMqv9P+h7f7+8eO297L4fQF2Qr8DImOBAhkS3wPBWXUCLwgrAiUStPwIZcr+L8Fc/
lpc_rms=-28.63
pitch_keycenter=c5
sample=Horn_marcato_quarter_FF_C5.opus
</region>

<region>
hikey=d3
hivel=127
lokey=c#3
lovel=0
lpc=iWUwQXPe2sGWDgJCeUD3wfzq60GYz9jB1iO/QW31p8E3Y49Bd4VnweE7OEFk7gPBwZOrQK60HsCsyUg+PQfUP79yXcACrpRAcIeewCr7mkB8p4jAl3tOQFe43L9WOhI/
lpc_rms=-34.56
pitch_keycenter=d3
sample=Horn_marcato_quarter_FF_D3.opus
</region>

<region>
hikey=d4
hivel=127
lokey=c#4
lovel=0
lpc=Ier3QBzOfMEyvnhByJtbwZ+rSEGw6S7B/xoaQSeMCMEmTdpANXekwO8ZiUARUAzA/Ncivu0m1T9zZxTATi4iQNheA8BuNpQ/qwORvreDMT0r34C8NdjaPsSbs76H9+Q9
lpc_rms=-28.06
pitch_keycenter=d4
sample=Horn_marcato_quarter_FF_D4.opus
</region>

<region>
hikey=d5
hivel=127
lokey=c#5
lovel=0
lpc=Pk2VQGcKBMFSEvVAznPDwAyRnkC/5YfAuXpkQKJp978YFGY/Q3BAv7cIMT/0Lb++lYstvi3/Gz8iDRS/btwEP1+S3r4BbvM+BmRBPlsEi74rS6c+0owru7W5rT0iPZs9
lpc_rms=-31.71
pitch_keycenter=d5
sample=Horn_marcato_quarter_FF_D5.opus
</region>

<region>
hikey=e3
hivel=127
lokey=d#3
lovel=0
lpc=CgoEQVwZkcFtUZhBd4mGwR4bdEH+zVXBKSg2QRlrJMH8pRBBb8HqwF7xxkB+mJbA19VbQDMcDMCRkCA/4wCSP50vIsCUfEtAViUuwEDw2z9Mepm/cF2NP6X7Wb/z9gk/
lpc_rms=-32.79
pitch_keycenter=e3
sample=Horn_marcato_quarter_FF_E3.opus
</region>

<region>
hikey=e4
hivel=127
lokey=d#4
lovel=0
lpc=HdXBQFeoScHYGEdB6/cswWCnI0GHrxXBX/AEQd6e7MAJAr5AzKqjwDDcoUDvXJfAmtplQHnJuL+NjdE95m2kvYwKRb7RRsw+2FMBPwekh7+lI1Q/PB7fvr+a3j705nO+
lpc_rms=-30.51
pitch_keycenter=e4
sample=Horn_marcato_quarter_FF_E4.opus
</region>

<region>
hikey=e5
hivel=127
lokey=d#5
lovel=0
lpc=TkX4QCSZf8Gh1YZBioViwQN7LUFF/NfALdiWQKC7jcBtUqNA4BmMwH6RTEBLWg3AQ5wAQNVIh79BEKc94mxcPyfUCMC31IJAbB1lwE95Q0Cs62LANVtZQN1hEcDWlsQ/
lpc_rms=-27.07
pitch_keycenter=E5
sample=Horn_marcato_quarter_FF_E5.opus
</region>

<region>
hivel=127
key=f#2
lovel=0
lpc=TmfKQSM8ncLuV+lCqx78wg7l9kLkS+nClqvWQrbEwMICa6RCKMmBws/KPkLobADCB1iZQWKoAsGDR56/zrsUQUYyf8Gy/aRBKVGxwXfDoUFV+oDBsVMuQekTqMAVpKw/
lpc_rms=-37.91
sample=Horn_marcato_quarter_FF_F#2.opus
</region>

<region>
hikey=f#3
hivel=127
lokey=f3
lovel=0
lpc=1rzxQNB0gMEYb4BBJC1VwT7sMUGWLxPBbLYDQbwc8MCmGtRAIGrDwNffu0CGU7TAsCSjQDvSgcBLektAeaMAwJL3uj+gaIS/0+ckP9Jx4r6NSUK+bm1LP56CIL9Ei7A+
lpc_rms=-33.85
pitch_keycenter=f#3
sample=Horn_marcato_quarter_FF_F#3.opus
</region>

<region>
hikey=f#4
hivel=127
lokey=f4
lovel=0
lpc=tt7BQF8IScHrIkhBNPkxwY/AI0H4DRXB5psJQax/28D7oqNAChJ3wLm4PEAl7BrAPve9P9N5uz7i+a+/DYMUQLRLTsB7a05ACRZAwBlhGkC8BtK/av6nP1BwLr/VSRA+
lpc_rms=-29.89
pitch_keycenter=f#4
sample=Horn_marcato_quarter_FF_F#4.opus
</region>

<region>
hikey=F2
hivel=127
lokey=C2
lovel=0
lpc=a/zqQdwExMJimB1DBsQ0w6pENUO88CrDhZ0ZQ1PMBMPREttCgvmowh4Gc0KChiDCPTexQZhWj8AYWDTBQhW5Qdbb+sGbfwxCFqcDwls31UF37JzBjqZOQS192MANGgVA
lpc_rms=-41.34
pitch_keycenter=F2
sample=Horn_marcato_quarter_FF_F2.opus
</region>

<region>
hikey=g#2
hivel=127
lokey=g2
lovel=0
lpc=V0cdQjbkDcNztHNDl46Pwy5PjkP/XITDAoBuQ+e5T8NZoytDvy0Dw7vTuULe/3HCMFcMQuaHecFgxFG/a1iDQX7fA8ITkUJCKzNhwoP5UELX7RzC+8y4QcmFGsFcNg1A
lpc_rms=-37.85
pitch_keycenter=g#2
sample=Horn_marcato_quarter_FF_G#2.opus
</region>

<region>
hikey=g#3
hivel=127
lokey=g3
lovel=0
lpc=1SUzQZQT3cEjiABC4GztwT+o2UHTv8HBmwWqQX2vl8E3AIFBpB5EwX6GDEF/xcHAMPaBQGQJr78xDfq/CWCEQOM8ncBcBp5AbZadwL9+mEBw1ITASFRlQGAnIcAJU4A/
lpc_rms=-30.66
pitch_keycenter=g#3
sample=Horn_marcato_quarter_FF_G#3.opus
</region>

<region>
hikey=g#4
hivel=127
lokey=g4
lovel=0
lpc=uqTBQCIIQMFqzS9BCe0ZwRlIE0HlxwLB+UH0QLip28Az2a5AZwSMwMWeekCvwVfAhsA/QEwP6r/VsyU/ZUKgvrr3c7+qwhpAbcMTwN3Z5D+Yx5W/nwRWP7K2Vr85sfA+
lpc_rms=-29.20
pitch_keycenter=g#4
sample=Horn_marcato_quarter_FF_G#4.opus
</region>
</group>

<group>
group_label=RR1
seq_length=4
seq_position=1

<region>
hivel=127
key=A#2
lovel=85
sample=Horn_staccato_FF_A#2_RR1.opus
</region>

<region>
hivel=127
key=A#3
lovel=85
sample=Horn_staccato_FF_A#3_RR1.opus
</region>

<region>
hivel=127
key=A#4
lovel=85
sample=Horn_staccato_FF_A#4_RR1.opus
</region>

<region>
hivel=127
key=A2
lovel=85
sample=Horn_staccato_FF_A2_RR1.opus
</region>

<region>
hivel=127
key=A3
lovel=85
sample=Horn_staccato_FF_A3_RR1.opus
</region>

<region>
hivel=127
key=A4
lovel=85
sample=Horn_staccato_FF_A4_RR1.opus
</region>

<region>
hivel=127
key=B2
lovel=85
sample=Horn_staccato_FF_B2_RR1.opus
</region>

<region>
hivel=127
key=B3
lovel=85
sample=Horn_staccato_FF_B3_RR1.opus
</region>

<region>
hivel=127
key=B4
lovel=85
sample=Horn_staccato_FF_B4_RR1.opus
</region>

<region>
hivel=127
key=C#3
lovel=85
sample=Horn_staccato_FF_C#3_RR1.opus
</region>

<region>
hivel=127
key=C#4
lovel=85
sample=Horn_staccato_FF_C#4_RR1.opus
</region>

<region>
hivel=127
key=C#5
lovel=85
sample=Horn_staccato_FF_C#5_RR1.opus
</region>

<region>
hivel=127
key=C3
lovel=85
sample=Horn_staccato_FF_C3_RR1.opus
</region>

<region>
hivel=127
key=C4
lovel=85
sample=Horn_staccato_FF_C4_RR1.opus
</region>

<region>
hivel=127
key=C5
lovel=85
sample=Horn_staccato_FF_C5_RR1.opus
</region>

<region>
hivel=127
key=D#3
lovel=85
sample=Horn_staccato_FF_D#3_RR1.opus
</region>

<region>
hivel=127
key=D#4
lovel=85
sample=Horn_staccato_FF_D#4_RR1.opus
</region>

<region>
hivel=127
key=D#5
lovel=85
sample=Horn_staccato_FF_D#5_RR1.opus
</region>

<region>
hivel=127
key=D3
lovel=85
sample=Horn_staccato_FF_D3_RR1.opus
</region>

<region>
hivel=127
key=D4
lovel=85
sample=Horn_staccato_FF_D4_RR1.opus
</region>

<region>
hivel=127
key=D5
lovel=85
sample=Horn_staccato_FF_D5_RR1.opus
</region>

<region>
hivel=127
key=E3
lovel=85
sample=Horn_staccato_FF_E3_RR1.opus
</region>

<region>
hivel=127
key=E4
lovel=85
sample=Horn_staccato_FF_E4_RR1.opus
</region>

<region>
hivel=127
key=E5
lovel=85
sample=Horn_staccato_FF_E5_RR1.opus
</region>

<region>
hivel=127
key=F#2
lovel=85
sample=Horn_staccato_FF_F#2_RR1.opus
</region>

<region>
hivel=127
key=F#3
lovel=85
sample=Horn_staccato_FF_F#3_RR1.opus
</region>

<region>
hivel=127
key=F#4
lovel=85
sample=Horn_staccato_FF_F#4_RR1.opus
</region>

<region>
hikey=F2
hivel=127
lokey=C2
lovel=85
pitch_keycenter=F2
sample=Horn_staccato_FF_F2_RR1.opus
</region>

<region>
hivel=127
key=F3
lovel=85
sample=Horn_staccato_FF_F3_RR1.opus
</region>

<region>
hivel=127
key=F4
lovel=85
sample=Horn_staccato_FF_F4_RR1.opus
</region>

<region>
hikey=A#5
hivel=127
lokey=F5
lovel=85
pitch_keycenter=F5
sample=Horn_staccato_FF_F5_RR1.opus
</region>

<region>
hivel=127
key=G#2
lovel=85
sample=Horn_staccato_FF_G#2_RR1.opus
</region>

<region>
hivel=127
key=G#3
lovel=85
sample=Horn_staccato_FF_G#3_RR1.opus
</region>

<region>
hivel=127
key=G#4
lovel=85
sample=Horn_staccato_FF_G#4_RR1.opus
</region>

<region>
hivel=127
key=G2
lovel=85
sample=Horn_staccato_FF_G2_RR1.opus
</region>

<region>
hivel=127
key=G3
lovel=85
sample=Horn_staccato_FF_G3_RR1.opus
</region>

<region>
hivel=127
key=G4
lovel=85
sample=Horn_staccato_FF_G4_RR1.opus
</region>

<region>
hivel=84
key=A#2
lovel=43
sample=Horn_staccato_MF_A#2_RR1.opus
</region>

<region>
hivel=84
key=A#3
lovel=43
sample=Horn_staccato_MF_A#3_RR1.opus
</region>

<region>
hivel=84
key=A#4
lovel=43
sample=Horn_staccato_MF_A#4_RR1.opus
</region>

<region>
hivel=84
key=A2
lovel=43
sample=Horn_staccato_MF_A2_RR1.opus
</region>

<region>
hivel=84
key=A3
lovel=43
sample=Horn_staccato_MF_A3_RR1.opus
</region>

<region>
hivel=84
key=A4
lovel=43
sample=Horn_staccato_MF_A4_RR1.opus
</region>

<region>
hivel=84
key=B2
lovel=43
sample=Horn_staccato_MF_B2_RR1.opus
</region>

<region>
hivel=84
key=B3
lovel=43
sample=Horn_staccato_MF_B3_RR1.opus
</region>

<region>
hivel=84
key=B4
lovel=43
sample=Horn_staccato_MF_B4_RR1.opus
</region>

<region>
hivel=84
key=C#3
lovel=43
sample=Horn_staccato_MF_C#3_RR1.opus
</region>

<region>
hivel=84
key=C#4
lovel=43
sample=Horn_staccato_MF_C#4_RR1.opus
</region>

<region>
hivel=84
key=C#5
lovel=43
sample=Horn_staccato_MF_C#5_RR1.opus
</region>

<region>
hivel=84
key=C3
lovel=43
sample=Horn_staccato_MF_C3_RR1.opus
</region>

<region>
hivel=84
key=C4
lovel=43
sample=Horn_staccato_MF_C4_RR1.opus
</region>

<region>
hivel=84
key=C5
lovel=43
sample=Horn_staccato_MF_C5_RR1.opus
</region>

<region>
hivel=84
key=D#3
lovel=43
sample=Horn_staccato_MF_D#3_RR1.opus
</region>

<region>
hivel=84
key=D#4
lovel=43
sample=Horn_staccato_MF_D#4_RR1.opus
</region>

<region>
hivel=84
key=D#5
lovel=43
sample=Horn_staccato_MF_D#5_RR1.opus
</region>

<region>
hivel=84
key=D3
lovel=43
sample=Horn_staccato_MF_D3_RR1.opus
</region>

<region>
hivel=84
key=D4
lovel=43
sample=Horn_staccato_MF_D4_RR1.opus
</region>

<region>
hivel=84
key=D5
lovel=43
sample=Horn_staccato_MF_D5_RR1.opus
</region>

<region>
hivel=84
key=E3
lovel=43
sample=Horn_staccato_MF_E3_RR1.opus
</region>

<region>
hivel=84
key=E4
lovel=43
sample=Horn_staccato_MF_E4_RR1.opus
</region>

<region>
hivel=84
key=E5
lovel=43
sample=Horn_staccato_MF_E5_RR1.opus
</region>

<region>
hivel=84
key=F#2
lovel=43
sample=Horn_staccato_MF_F#2_RR1.opus
</region>

<region>
hivel=84
key=F#3
lovel=43
sample=Horn_staccato_MF_F#3_RR1.opus
</region>

<region>
hivel=84
key=F#4
lovel=43
sample=Horn_staccato_MF_F#4_RR1.opus
</region>

<region>
hikey=F2
hivel=84
lokey=C2
lovel=43
pitch_keycenter=F2
sample=Horn_staccato_MF_F2_RR1.opus
</region>

<region>
hivel=84
key=F3
lovel=43
sample=Horn_staccato_MF_F3_RR1.opus
</region>

<region>
hivel=84
key=F4
lovel=43
sample=Horn_staccato_MF_F4_RR1.opus
</region>

<region>
hikey=A#5
hivel=84
lokey=F5
lovel=43
pitch_keycenter=F5
sample=Horn_staccato_MF_F5_RR1.opus
</region>

<region>
hivel=84
key=G#2
lovel=43
sample=Horn_staccato_MF_G#2_RR1.opus
</region>

<region>
hivel=84
key=G#3
lovel=43
sample=Horn_staccato_MF_G#3_RR1.opus
</region>

<region>
hivel=84
key=G#4
lovel=43
sample=Horn_staccato_MF_G#4_RR1.opus
</region>

<region>
hivel=84
key=G2
lovel=43
sample=Horn_staccato_MF_G2_RR1.opus
</region>

<region>
hivel=84
key=G3
lovel=43
sample=Horn_staccato_MF_G3_RR1.opus
</region>

<region>
hivel=84
key=G4
lovel=43
sample=Horn_staccato_MF_G4_RR1.opus
</region>

<region>
hivel=42
key=A#2
lovel=0
sample=Horn_staccato_PP_A#2_RR1.opus
</region>

<region>
hivel=42
key=A#3
lovel=0
sample=Horn_staccato_PP_A#3_RR1.opus
</region>

<region>
hivel=42
key=A#4
lovel=0
sample=Horn_staccato_PP_A#4_RR1.opus
</region>

<region>
hivel=42
key=A2
lovel=0
sample=Horn_staccato_PP_A2_RR1.opus
</region>

<region>
hivel=42
key=A3
lovel=0
sample=Horn_staccato_PP_A3_RR1.opus
</region>

<region>
hivel=42
key=A4
lovel=0
sample=Horn_staccato_PP_A4_RR1.opus
</region>

<region>
hivel=42
key=B2
lovel=0
sample=Horn_staccato_PP_B2_RR1.opus
</region>

<region>
hivel=42
key=B3
lovel=0
sample=Horn_staccato_PP_B3_RR1.opus
</region>

<region>
hivel=42
key=B4
lovel=0
sample=Horn_staccato_PP_B4_RR1.opus
</region>

<region>
hivel=42
key=C#3
lovel=0
sample=Horn_staccato_PP_C#3_RR1.opus
</region>

<region>
hivel=42
key=C#4
lovel=0
sample=Horn_staccato_PP_C#4_RR1.opus
</region>

<region>
hivel=42
key=C#5
lovel=0
sample=Horn_staccato_PP_C#5_RR1.opus
</region>

<region>
hivel=42
key=C3
lovel=0
sample=Horn_staccato_PP_C3_RR1.opus
</region>

<region>
hivel=42
key=C4
lovel=0
sample=Horn_staccato_PP_C4_RR1.opus
</region>

<region>
hivel=42
key=C5
lovel=0
sample=Horn_staccato_PP_C5_RR1.opus
</region>

<region>
hivel=42
key=D#3
lovel=0
sample=Horn_staccato_PP_D#3_RR1.opus
</region>

<region>
hivel=42
key=D#4
lovel=0
sample=Horn_staccato_PP_D#4_RR1.opus
</region>

<region>
hivel=42
key=D#5
lovel=0
sample=Horn_staccato_PP_D#5_RR1.opus
</region>

<region>
hivel=42
key=D3
lovel=0
sample=Horn_staccato_PP_D3_RR1.opus
</region>

<region>
hivel=42
key=D4
lovel=0
sample=Horn_staccato_PP_D4_RR1.opus
</region>

<region>
hivel=42
key=D5
lovel=0
sample=Horn_staccato_PP_D5_RR1.opus
</region>

<region>
hivel=42
key=E3
lovel=0
sample=Horn_staccato_PP_E3_RR1.opus
</region>

<region>
hivel=42
key=E4
lovel=0
sample=Horn_staccato_PP_E4_RR1.opus
</region>

<region>
hivel=42
key=E5
lovel=0
sample=Horn_staccato_PP_E5_RR1.opus
</region>

<region>
hivel=42
key=F#2
lovel=0
sample=Horn_staccato_PP_F#2_RR1.opus
</region>

<region>
hivel=42
key=F#3
lovel=0
sample=Horn_staccato_PP_F#3_RR1.opus
</region>

<region>
hivel=42
key=F#4
lovel=0
sample=Horn_staccato_PP_F#4_RR1.opus
</region>

<region>
hikey=F2
hivel=42
lokey=C2
lovel=0
pitch_keycenter=F2
sample=Horn_staccato_PP_F2_RR1.opus
</region>

<region>
hivel=42
key=F3
lovel=0
sample=Horn_staccato_PP_F3_RR1.opus
</region>

<region>
hivel=42
key=F4
lovel=0
sample=Horn_staccato_PP_F4_RR1.opus
</region>

<region>
hikey=A#5
hivel=42
lokey=F5
lovel=0
pitch_keycenter=F5
sample=Horn_staccato_PP_F5_RR1.opus
</region>

<region>
hivel=42
key=G#2
lovel=0
sample=Horn_staccato_PP_G#2_RR1.opus
</region>

<region>
hivel=42
key=G#3
lovel=0
sample=Horn_staccato_PP_G#3_RR1.opus
</region>

<region>
hivel=42
key=G#4
lovel=0
sample=Horn_staccato_PP_G#4_RR1.opus
</region>

<region>
hivel=42
key=G2
lovel=0
sample=Horn_staccato_PP_G2_RR1.opus
</region>

<region>
hivel=42
key=G3
lovel=0
sample=Horn_staccato_PP_G3_RR1.opus
</region>

<region>
hivel=42
key=G4
lovel=0
sample=Horn_staccato_PP_G4_RR1.opus
</region>
</group>

<group>
group_label=RR2
seq_length=4
seq_position=2

<region>
hivel=127
key=A#2
lovel=85
sample=Horn_staccato_FF_A#2_RR2.opus
</region>

<region>
hivel=127
key=A#3
lovel=85
sample=Horn_staccato_FF_A#3_RR2.opus
</region>

<region>
hivel=127
key=A#4
lovel=85
sample=Horn_staccato_FF_A#4_RR2.opus
</region>

<region>
hivel=127
key=A2
lovel=85
sample=Horn_staccato_FF_A2_RR2.opus
</region>

<region>
hivel=127
key=A3
lovel=85
sample=Horn_staccato_FF_A3_RR2.opus
</region>

<region>
hivel=127
key=A4
lovel=85
sample=Horn_staccato_FF_A4_RR2.opus
</region>

<region>
hivel=127
key=B2
lovel=85
sample=Horn_staccato_FF_B2_RR2.opus
</region>

<region>
hivel=127
key=B3
lovel=85
sample=Horn_staccato_FF_B3_RR2.opus
</region>

<region>
hivel=127
key=B4
lovel=85
sample=Horn_staccato_FF_B4_RR2.opus
</region>

<region>
hivel=127
key=C#3
lovel=85
sample=Horn_staccato_FF_C#3_RR2.opus
</region>

<region>
hivel=127
key=C#4
lovel=85
sample=Horn_staccato_FF_C#4_RR2.opus
</region>

<region>
hivel=127
key=C#5
lovel=85
sample=Horn_staccato_FF_C#5_RR2.opus
</region>

<region>
hivel=127
key=C3
lovel=85
sample=Horn_staccato_FF_C3_RR2.opus
</region>

<region>
hivel=127
key=C4
lovel=85
sample=Horn_staccato_FF_C4_RR2.opus
</region>

<region>
hivel=127
key=C5
lovel=85
sample=Horn_staccato_FF_C5_RR2.opus
</region>

<region>
hivel=127
key=D#3
lovel=85
sample=Horn_staccato_FF_D#3_RR2.opus
</region>

<region>
hivel=127
key=D#4
lovel=85
sample=Horn_staccato_FF_D#4_RR2.opus
</region>

<region>
hivel=127
key=D#5
lovel=85
sample=Horn_staccato_FF_D#5_RR2.opus
</region>

<region>
hivel=127
key=D3
lovel=85
sample=Horn_staccato_FF_D3_RR2.opus
</region>

<region>
hivel=127
key=D4
lovel=85
sample=Horn_staccato_FF_D4_RR2.opus
</region>

<region>
hivel=127
key=D5
lovel=85
sample=Horn_staccato_FF_D5_RR2.opus
</region>

<region>
hivel=127
key=E3
lovel=85
sample=Horn_staccato_FF_E3_RR2.opus
</region>

<region>
hivel=127
key=E4
lovel=85
sample=Horn_staccato_FF_E4_RR2.opus
</region>

<region>
hivel=127
key=E5
lovel=85
sample=Horn_staccato_FF_E5_RR2.opus
</region>

<region>
hivel=127
key=F#2
lovel=85
sample=Horn_staccato_FF_F#2_RR2.opus
</region>

<region>
hivel=127
key=F#3
lovel=85
sample=Horn_staccato_FF_F#3_RR2.opus
</region>

<region>
hivel=127
key=F#4
lovel=85
sample=Horn_staccato_FF_F#4_RR2.opus
</region>

<region>
hikey=F2
hivel=127
lokey=C2
lovel=85
pitch_keycenter=F2
sample=Horn_staccato_FF_F2_RR2.opus
</region>

<region>
hivel=127
key=F3
lovel=85
sample=Horn_staccato_FF_F3_RR2.opus
</region>

<region>
hivel=127
key=F4
lovel=85
sample=Horn_staccato_FF_F4_RR2.opus
</region>

<region>
hikey=A#5
hivel=127
lokey=F5
lovel=85
pitch_keycenter=F5
sample=Horn_staccato_FF_F5_RR2.opus
</region>

<region>
hivel=127
key=G#2
lovel=85
sample=Horn_staccato_FF_G#2_RR2.opus
</region>

<region>
hivel=127
key=G#3
lovel=85
sample=Horn_staccato_FF_G#3_RR2.opus
</region>

<region>
hivel=127
key=G#4
lovel=85
sample=Horn_staccato_FF_G#4_RR2.opus
</region>

<region>
hivel=127
key=G2
lovel=85
sample=Horn_staccato_FF_G2_RR2.opus
</region>

<region>
hivel=127
key=G3
lovel=85
sample=Horn_staccato_FF_G3_RR2.opus
</region>

<region>
hivel=127
key=G4
lovel=85
sample=Horn_staccato_FF_G4_RR2.opus
</region>

<region>
hivel=84
key=A#2
lovel=43
sample=Horn_staccato_MF_A#2_RR2.opus
</region>

<region>
hivel=84
key=A#3
lovel=43
sample=Horn_staccato_MF_A#3_RR2.opus
</region>

<region>
hivel=84
key=A#4
lovel=43
sample=Horn_staccato_MF_A#4_RR2.opus
</region>

<region>
hivel=84
key=A2
lovel=43
sample=Horn_staccato_MF_A2_RR2.opus
</region>

<region>
hivel=84
key=A3
lovel=43
sample=Horn_staccato_MF_A3_RR2.opus
</region>

<region>
hivel=84
key=A4
lovel=43
sample=Horn_staccato_MF_A4_RR2.opus
</region>

<region>
hivel=84
key=B2
lovel=43
sample=Horn_staccato_MF_B2_RR2.opus
</region>

<region>
hivel=84
key=B3
lovel=43
sample=Horn_staccato_MF_B3_RR2.opus
</region>

<region>
hivel=84
key=B4
lovel=43
sample=Horn_staccato_MF_B4_RR2.opus
</region>

<region>
hivel=84
key=C#3
lovel=43
sample=Horn_staccato_MF_C#3_RR2.opus
</region>

<region>
hivel=84
key=C#4
lovel=43
sample=Horn_staccato_MF_C#4_RR2.opus
</region>

<region>
hivel=84
key=C#5
lovel=43
sample=Horn_staccato_MF_C#5_RR2.opus
</region>

<region>
hivel=84
key=C3
lovel=43
sample=Horn_staccato_MF_C3_RR2.opus
</region>

<region>
hivel=84
key=C4
lovel=43
sample=Horn_staccato_MF_C4_RR2.opus
</region>

<region>
hivel=84
key=C5
lovel=43
sample=Horn_staccato_MF_C5_RR2.opus
</region>

<region>
hivel=84
key=D#3
lovel=43
sample=Horn_staccato_MF_D#3_RR2.opus
</region>

<region>
hivel=84
key=D#4
lovel=43
sample=Horn_staccato_MF_D#4_RR2.opus
</region>

<region>
hivel=84
key=D#5
lovel=43
sample=Horn_staccato_MF_D#5_RR2.opus
</region>

<region>
hivel=84
key=D3
lovel=43
sample=Horn_staccato_MF_D3_RR2.opus
</region>

<region>
hivel=84
key=D4
lovel=43
sample=Horn_staccato_MF_D4_RR2.opus
</region>

<region>
hivel=84
key=D5
lovel=43
sample=Horn_staccato_MF_D5_RR2.opus
</region>

<region>
hivel=84
key=E3
lovel=43
sample=Horn_staccato_MF_E3_RR2.opus
</region>

<region>
hivel=84
key=E4
lovel=43
sample=Horn_staccato_MF_E4_RR2.opus
</region>

<region>
hivel=84
key=E5
lovel=43
sample=Horn_staccato_MF_E5_RR2.opus
</region>

<region>
hivel=84
key=F#2
lovel=43
sample=Horn_staccato_MF_F#2_RR2.opus
</region>

<region>
hivel=84
key=F#3
lovel=43
sample=Horn_staccato_MF_F#3_RR2.opus
</region>

<region>
hivel=84
key=F#4
lovel=43
sample=Horn_staccato_MF_F#4_RR2.opus
</region>

<region>
hikey=F2
hivel=84
lokey=C2
lovel=43
pitch_keycenter=F2
sample=Horn_staccato_MF_F2_RR2.opus
</region>

<region>
hivel=84
key=F3
lovel=43
sample=Horn_staccato_MF_F3_RR2.opus
</region>

<region>
hivel=84
key=F4
lovel=43
sample=Horn_staccato_MF_F4_RR2.opus
</region>

<region>
hikey=A#5
hivel=84
lokey=F5
lovel=43
pitch_keycenter=F5
sample=Horn_staccato_MF_F5_RR2.opus
</region>

<region>
hivel=84
key=G#2
lovel=43
sample=Horn_staccato_MF_G#2_RR2.opus
</region>

<region>
hivel=84
key=G#3
lovel=43
sample=Horn_staccato_MF_G#3_RR2.opus
</region>

<region>
hivel=84
key=G#4
lovel=43
sample=Horn_staccato_MF_G#4_RR2.opus
</region>

<region>
hivel=84
key=G2
lovel=43
sample=Horn_staccato_MF_G2_RR2.opus
</region>

<region>
hivel=84
key=G3
lovel=43
sample=Horn_staccato_MF_G3_RR2.opus
</region>

<region>
hivel=84
key=G4
lovel=43
sample=Horn_staccato_MF_G4_RR2.opus
</region>

<region>
hivel=42
key=A#2
lovel=0
sample=Horn_staccato_PP_A#2_RR2.opus
</region>

<region>
hivel=42
key=A#3
lovel=0
sample=Horn_staccato_PP_A#3_RR2.opus
</region>

<region>
hivel=42
key=A#4
lovel=0
sample=Horn_staccato_PP_A#4_RR2.opus
</region>

<region>
hivel=42
key=A2
lovel=0
sample=Horn_staccato_PP_A2_RR2.opus
</region>

<region>
hivel=42
key=A3
lovel=0
sample=Horn_staccato_PP_A3_RR2.opus
</region>

<region>
hivel=42
key=A4
lovel=0
sample=Horn_staccato_PP_A4_RR2.opus
</region>

<region>
hivel=42
key=B2
lovel=0
sample=Horn_staccato_PP_B2_RR2.opus
</region>

<region>
hivel=42
key=B3
lovel=0
sample=Horn_staccato_PP_B3_RR2.opus
</region>

<region>
hivel=42
key=B4
lovel=0
sample=Horn_staccato_PP_B4_RR2.opus
</region>

<region>
hivel=42
key=C#3
lovel=0
sample=Horn_staccato_PP_C#3_RR2.opus
</region>

<region>
hivel=42
key=C#4
lovel=0
sample=Horn_staccato_PP_C#4_RR2.opus
</region>

<region>
hivel=42
key=C#5
lovel=0
sample=Horn_staccato_PP_C#5_RR2.opus
</region>

<region>
hivel=42
key=C3
lovel=0
sample=Horn_staccato_PP_C3_RR2.opus
</region>

<region>
hivel=42
key=C4
lovel=0
sample=Horn_staccato_PP_C4_RR2.opus
</region>

<region>
hivel=42
key=C5
lovel=0
sample=Horn_staccato_PP_C5_RR2.opus
</region>

<region>
hivel=42
key=D#3
lovel=0
sample=Horn_staccato_PP_D#3_RR2.opus
</region>

<region>
hivel=42
key=D#4
lovel=0
sample=Horn_staccato_PP_D#4_RR2.opus
</region>

<region>
hivel=42
key=D#5
lovel=0
sample=Horn_staccato_PP_D#5_RR2.opus
</region>

<region>
hivel=42
key=D3
lovel=0
sample=Horn_staccato_PP_D3_RR2.opus
</region>

<region>
hivel=42
key=D4
lovel=0
sample=Horn_staccato_PP_D4_RR2.opus
</region>

<region>
hivel=42
key=D5
lovel=0
sample=Horn_staccato_PP_D5_RR2.opus
</region>

<region>
hivel=42
key=E3
lovel=0
sample=Horn_staccato_PP_E3_RR2.opus
</region>

<region>
hivel=42
key=E4
lovel=0
sample=Horn_staccato_PP_E4_RR2.opus
</region>

<region>
hivel=42
key=E5
lovel=0
sample=Horn_staccato_PP_E5_RR2.opus
</region>

<region>
hivel=42
key=F#2
lovel=0
sample=Horn_staccato_PP_F#2_RR2.opus
</region>

<region>
hivel=42
key=F#3
lovel=0
sample=Horn_staccato_PP_F#3_RR2.opus
</region>

<region>
hivel=42
key=F#4
lovel=0
sample=Horn_staccato_PP_F#4_RR2.opus
</region>

<region>
hikey=F2
hivel=42
lokey=C2
lovel=0
pitch_keycenter=F2
sample=Horn_staccato_PP_F2_RR2.opus
</region>

<region>
hivel=42
key=F3
lovel=0
sample=Horn_staccato_PP_F3_RR2.opus
</region>

<region>
hivel=42
key=F4
lovel=0
sample=Horn_staccato_PP_F4_RR2.opus
</region>

<region>
hikey=A#5
hivel=42
lokey=F5
lovel=0
pitch_keycenter=F5
sample=Horn_staccato_PP_F5_RR2.opus
</region>

<region>
hivel=42
key=G#2
lovel=0
sample=Horn_staccato_PP_G#2_RR2.opus
</region>

<region>
hivel=42
key=G#3
lovel=0
sample=Horn_staccato_PP_G#3_RR2.opus
</region>

<region>
hivel=42
key=G#4
lovel=0
sample=Horn_staccato_PP_G#4_RR2.opus
</region>

<region>
hivel=42
key=G2
lovel=0
sample=Horn_staccato_PP_G2_RR2.opus
</region>

<region>
hivel=42
key=G3
lovel=0
sample=Horn_staccato_PP_G3_RR2.opus
</region>

<region>
hivel=42
key=G4
lovel=0
sample=Horn_staccato_PP_G4_RR2.opus
</region>
</group>

<group>
group_label=RR3
seq_length=4
seq_position=3

<region>
hivel=127
key=A#2
lovel=85
sample=Horn_staccato_FF_A#2_RR3.opus
</region>

<region>
hivel=127
key=A#3
lovel=85
sample=Horn_staccato_FF_A#3_RR3.opus
</region>

<region>
hivel=127
key=A#4
lovel=85
sample=Horn_staccato_FF_A#4_RR3.opus
</region>

<region>
hivel=127
key=A2
lovel=85
sample=Horn_staccato_FF_A2_RR3.opus
</region>

<region>
hivel=127
key=A3
lovel=85
sample=Horn_staccato_FF_A3_RR3.opus
</region>

<region>
hivel=127
key=A4
lovel=85
sample=Horn_staccato_FF_A4_RR3.opus
</region>

<region>
hivel=127
key=B2
lovel=85
sample=Horn_staccato_FF_B2_RR3.opus
</region>

<region>
hivel=127
key=B3
lovel=85
sample=Horn_staccato_FF_B3_RR3.opus
</region>

<region>
hivel=127
key=B4
lovel=85
sample=Horn_staccato_FF_B4_RR3.opus
</region>

<region>
hivel=127
key=C#3
lovel=85
sample=Horn_staccato_FF_C#3_RR3.opus
</region>

<region>
hivel=127
key=C#4
lovel=85
sample=Horn_staccato_FF_C#4_RR3.opus
</region>

<region>
hivel=127
key=C#5
lovel=85
sample=Horn_staccato_FF_C#5_RR3.opus
</region>

<region>
hivel=127
key=C3
lovel=85
sample=Horn_staccato_FF_C3_RR3.opus
</region>

<region>
hivel=127
key=C4
lovel=85
sample=Horn_staccato_FF_C4_RR3.opus
</region>

<region>
hivel=127
key=C5
lovel=85
sample=Horn_staccato_FF_C5_RR3.opus
</region>

<region>
hivel=127
key=D#3
lovel=85
sample=Horn_staccato_FF_D#3_RR3.opus
</region>

<region>
hivel=127
key=D#4
lovel=85
sample=Horn_staccato_FF_D#4_RR3.opus
</region>

<region>
hivel=127
key=D#5
lovel=85
sample=Horn_staccato_FF_D#5_RR3.opus
</region>

<region>
hivel=127
key=D3
lovel=85
sample=Horn_staccato_FF_D3_RR3.opus
</region>

<region>
hivel=127
key=D4
lovel=85
sample=Horn_staccato_FF_D4_RR3.opus
</region>

<region>
hivel=127
key=D5
lovel=85
sample=Horn_staccato_FF_D5_RR3.opus
</region>

<region>
hivel=127
key=E3
lovel=85
sample=Horn_staccato_FF_E3_RR3.opus
</region>

<region>
hivel=127
key=E4
lovel=85
sample=Horn_staccato_FF_E4_RR3.opus
</region>

<region>
hivel=127
key=E5
lovel=85
sample=Horn_staccato_FF_E5_RR3.opus
</region>

<region>
hivel=127
key=F#2
lovel=85
sample=Horn_staccato_FF_F#2_RR3.opus
</region>

<region>
hivel=127
key=F#3
lovel=85
sample=Horn_staccato_FF_F#3_RR3.opus
</region>

<region>
hivel=127
key=F#4
lovel=85
sample=Horn_staccato_FF_F#4_RR3.opus
</region>

<region>
hikey=F2
hivel=127
lokey=C2
lovel=85
pitch_keycenter=F2
sample=Horn_staccato_FF_F2_RR3.opus
</region>

<region>
hivel=127
key=F3
lovel=85
sample=Horn_staccato_FF_F3_RR3.opus
</region>

<region>
hivel=127
key=F4
lovel=85
sample=Horn_staccato_FF_F4_RR3.opus
</region>

<region>
hikey=A#5
hivel=127
lokey=F5
lovel=85
pitch_keycenter=F5
sample=Horn_staccato_FF_F5_RR3.opus
</region>

<region>
hivel=127
key=G#2
lovel=85
sample=Horn_staccato_FF_G#2_RR3.opus
</region>

<region>
hivel=127
key=G#3
lovel=85
sample=Horn_staccato_FF_G#3_RR3.opus
</region>

<region>
hivel=127
key=G#4
lovel=85
sample=Horn_staccato_FF_G#4_RR3.opus
</region>

<region>
hivel=127
key=G2
lovel=85
sample=Horn_staccato_FF_G2_RR3.opus
</region>

<region>
hivel=127
key=G3
lovel=85
sample=Horn_staccato_FF_G3_RR3.opus
</region>

<region>
hivel=127
key=G4
lovel=85
sample=Horn_staccato_FF_G4_RR3.opus
</region>

<region>
hivel=84
key=A#2
lovel=43
sample=Horn_staccato_MF_A#2_RR3.opus
</region>

<region>
hivel=84
key=A#3
lovel=43
sample=Horn_staccato_MF_A#3_RR3.opus
</region>

<region>
hivel=84
key=A#4
lovel=43
sample=Horn_staccato_MF_A#4_RR3.opus
</region>

<region>
hivel=84
key=A2
lovel=43
sample=Horn_staccato_MF_A2_RR3.opus
</region>

<region>
hivel=84
key=A3
lovel=43
sample=Horn_staccato_MF_A3_RR3.opus
</region>

<region>
hivel=84
key=A4
lovel=43
sample=Horn_staccato_MF_A4_RR3.opus
</region>

<region>
hivel=84
key=B2
lovel=43
sample=Horn_staccato_MF_B2_RR3.opus
</region>

<region>
hivel=84
key=B3
lovel=43
sample=Horn_staccato_MF_B3_RR3.opus
</region>

<region>
hivel=84
key=B4
lovel=43
sample=Horn_staccato_MF_B4_RR3.opus
</region>

<region>
hivel=84
key=C#3
lovel=43
sample=Horn_staccato_MF_C#3_RR3.opus
</region>

<region>
hivel=84
key=C#4
lovel=43
sample=Horn_staccato_MF_C#4_RR3.opus
</region>

<region>
hivel=84
key=C#5
lovel=43
sample=Horn_staccato_MF_C#5_RR3.opus
</region>

<region>
hivel=84
key=C3
lovel=43
sample=Horn_staccato_MF_C3_RR3.opus
</region>

<region>
hivel=84
key=C4
lovel=43
sample=Horn_staccato_MF_C4_RR3.opus
</region>

<region>
hivel=84
key=C5
lovel=43
sample=Horn_staccato_MF_C5_RR3.opus
</region>

<region>
hivel=84
key=D#3
lovel=43
sample=Horn_staccato_MF_D#3_RR3.opus
</region>

<region>
hivel=84
key=D#4
lovel=43
sample=Horn_staccato_MF_D#4_RR3.opus
</region>

<region>
hivel=84
key=D#5
lovel=43
sample=Horn_staccato_MF_D#5_RR3.opus
</region>

<region>
hivel=84
key=D3
lovel=43
sample=Horn_staccato_MF_D3_RR3.opus
</region>

<region>
hivel=84
key=D4
lovel=43
sample=Horn_staccato_MF_D4_RR3.opus
</region>

<region>
hivel=84
key=D5
lovel=43
sample=Horn_staccato_MF_D5_RR3.opus
</region>

<region>
hivel=84
key=E3
lovel=43
sample=Horn_staccato_MF_E3_RR3.opus
</region>

<region>
hivel=84
key=E4
lovel=43
sample=Horn_staccato_MF_E4_RR3.opus
</region>

<region>
hivel=84
key=E5
lovel=43
sample=Horn_staccato_MF_E5_RR3.opus
</region>

<region>
hivel=84
key=F#2
lovel=43
sample=Horn_staccato_MF_F#2_RR3.opus
</region>

<region>
hivel=84
key=F#3
lovel=43
sample=Horn_staccato_MF_F#3_RR3.opus
</region>

<region>
hivel=84
key=F#4
lovel=43
sample=Horn_staccato_MF_F#4_RR3.opus
</region>

<region>
hikey=F2
hivel=84
lokey=C2
lovel=43
pitch_keycenter=F2
sample=Horn_staccato_MF_F2_RR3.opus
</region>

<region>
hivel=84
key=F3
lovel=43
sample=Horn_staccato_MF_F3_RR3.opus
</region>

<region>
hivel=84
key=F4
lovel=43
sample=Horn_staccato_MF_F4_RR3.opus
</region>

<region>
hikey=A#5
hivel=84
lokey=F5
lovel=43
pitch_keycenter=F5
sample=Horn_staccato_MF_F5_RR3.opus
</region>

<region>
hivel=84
key=G#2
lovel=43
sample=Horn_staccato_MF_G#2_RR3.opus
</region>

<region>
hivel=84
key=G#3
lovel=43
sample=Horn_staccato_MF_G#3_RR3.opus
</region>

<region>
hivel=84
key=G#4
lovel=43
sample=Horn_staccato_MF_G#4_RR3.opus
</region>

<region>
hivel=84
key=G2
lovel=43
sample=Horn_staccato_MF_G2_RR3.opus
</region>

<region>
hivel=84
key=G3
lovel=43
sample=Horn_staccato_MF_G3_RR3.opus
</region>

<region>
hivel=84
key=G4
lovel=43
sample=Horn_staccato_MF_G4_RR3.opus
</region>

<region>
hivel=42
key=A#2
lovel=0
sample=Horn_staccato_PP_A#2_RR3.opus
</region>

<region>
hivel=42
key=A#3
lovel=0
sample=Horn_staccato_PP_A#3_RR3.opus
</region>

<region>
hivel=42
key=A#4
lovel=0
sample=Horn_staccato_PP_A#4_RR3.opus
</region>

<region>
hivel=42
key=A2
lovel=0
sample=Horn_staccato_PP_A2_RR3.opus
</region>

<region>
hivel=42
key=A3
lovel=0
sample=Horn_staccato_PP_A3_RR3.opus
</region>

<region>
hivel=42
key=A4
lovel=0
sample=Horn_staccato_PP_A4_RR3.opus
</region>

<region>
hivel=42
key=B2
lovel=0
sample=Horn_staccato_PP_B2_RR3.opus
</region>

<region>
hivel=42
key=B3
lovel=0
sample=Horn_staccato_PP_B3_RR3.opus
</region>

<region>
hivel=42
key=B4
lovel=0
sample=Horn_staccato_PP_B4_RR3.opus
</region>

<region>
hivel=42
key=C#3
lovel=0
sample=Horn_staccato_PP_C#3_RR3.opus
</region>

<region>
hivel=42
key=C#4
lovel=0
sample=Horn_staccato_PP_C#4_RR3.opus
</region>

<region>
hivel=42
key=C#5
lovel=0
sample=Horn_staccato_PP_C#5_RR3.opus
</region>

<region>
hivel=42
key=C3
lovel=0
sample=Horn_staccato_PP_C3_RR3.opus
</region>

<region>
hivel=42
key=C4
lovel=0
sample=Horn_staccato_PP_C4_RR3.opus
</region>

<region>
hivel=42
key=C5
lovel=0
sample=Horn_staccato_PP_C5_RR3.opus
</region>

<region>
hivel=42
key=D#3
lovel=0
sample=Horn_staccato_PP_D#3_RR3.opus
</region>

<region>
hivel=42
key=D#4
lovel=0
sample=Horn_staccato_PP_D#4_RR3.opus
</region>

<region>
hivel=42
key=D#5
lovel=0
sample=Horn_staccato_PP_D#5_RR3.opus
</region>

<region>
hivel=42
key=D3
lovel=0
sample=Horn_staccato_PP_D3_RR3.opus
</region>

<region>
hivel=42
key=D4
lovel=0
sample=Horn_staccato_PP_D4_RR3.opus
</region>

<region>
hivel=42
key=D5
lovel=0
sample=Horn_staccato_PP_D5_RR3.opus
</region>

<region>
hivel=42
key=E3
lovel=0
sample=Horn_staccato_PP_E3_RR3.opus
</region>

<region>
hivel=42
key=E4
lovel=0
sample=Horn_staccato_PP_E4_RR3.opus
</region>

<region>
hivel=42
key=E5
lovel=0
sample=Horn_staccato_PP_E5_RR3.opus
</region>

<region>
hivel=42
key=F#2
lovel=0
sample=Horn_staccato_PP_F#2_RR3.opus
</region>

<region>
hivel=42
key=F#3
lovel=0
sample=Horn_staccato_PP_F#3_RR3.opus
</region>

<region>
hivel=42
key=F#4
lovel=0
sample=Horn_staccato_PP_F#4_RR3.opus
</region>

<region>
hikey=F2
hivel=42
lokey=C2
lovel=0
pitch_keycenter=F2
sample=Horn_staccato_PP_F2_RR3.opus
</region>

<region>
hivel=42
key=F3
lovel=0
sample=Horn_staccato_PP_F3_RR3.opus
</region>

<region>
hivel=42
key=F4
lovel=0
sample=Horn_staccato_PP_F4_RR3.opus
</region>

<region>
hikey=A#5
hivel=42
lokey=F5
lovel=0
pitch_keycenter=F5
sample=Horn_staccato_PP_F5_RR3.opus
</region>

<region>
hivel=42
key=G#2
lovel=0
sample=Horn_staccato_PP_G#2_RR3.opus
</region>

<region>
hivel=42
key=G#3
lovel=0
sample=Horn_staccato_PP_G#3_RR3.opus
</region>

<region>
hivel=42
key=G#4
lovel=0
sample=Horn_staccato_PP_G#4_RR3.opus
</region>

<region>
hivel=42
key=G2
lovel=0
sample=Horn_staccato_PP_G2_RR3.opus
</region>

<region>
hivel=42
key=G3
lovel=0
sample=Horn_staccato_PP_G3_RR3.opus
</region>

<region>
hivel=42
key=G4
lovel=0
sample=Horn_staccato_PP_G4_RR3.opus
</region>
</group>

<group>
group_label=RR4
seq_length=4
seq_position=4

<region>
hivel=127
key=A#2
lovel=85
sample=Horn_staccato_FF_A#2_RR4.opus
</region>

<region>
hivel=127
key=A#3
lovel=85
sample=Horn_staccato_FF_A#3_RR4.opus
</region>

<region>
hivel=127
key=A#4
lovel=85
sample=Horn_staccato_FF_A#4_RR4.opus
</region>

<region>
hivel=127
key=A2
lovel=85
sample=Horn_staccato_FF_A2_RR4.opus
</region>

<region>
hivel=127
key=A3
lovel=85
sample=Horn_staccato_FF_A3_RR4.opus
</region>

<region>
hivel=127
key=A4
lovel=85
sample=Horn_staccato_FF_A4_RR4.opus
</region>

<region>
hivel=127
key=B2
lovel=85
sample=Horn_staccato_FF_B2_RR4.opus
</region>

<region>
hivel=127
key=B3
lovel=85
sample=Horn_staccato_FF_B3_RR4.opus
</region>

<region>
hivel=127
key=B4
lovel=85
sample=Horn_staccato_FF_B4_RR4.opus
</region>

<region>
hivel=127
key=C#3
lovel=85
sample=Horn_staccato_FF_C#3_RR4.opus
</region>

<region>
hivel=127
key=C#4
lovel=85
sample=Horn_staccato_FF_C#4_RR4.opus
</region>

<region>
hivel=127
key=C#5
lovel=85
sample=Horn_staccato_FF_C#5_RR4.opus
</region>

<region>
hivel=127
key=C3
lovel=85
sample=Horn_staccato_FF_C3_RR4.opus
</region>

<region>
hivel=127
key=C4
lovel=85
sample=Horn_staccato_FF_C4_RR4.opus
</region>

<region>
hivel=127
key=C5
lovel=85
sample=Horn_staccato_FF_C5_RR4.opus
</region>

<region>
hivel=127
key=D#3
lovel=85
sample=Horn_staccato_FF_D#3_RR4.opus
</region>

<region>
hivel=127
key=D#4
lovel=85
sample=Horn_staccato_FF_D#4_RR4.opus
</region>

<region>
hivel=127
key=D#5
lovel=85
sample=Horn_staccato_FF_D#5_RR4.opus
</region>

<region>
hivel=127
key=D3
lovel=85
sample=Horn_staccato_FF_D3_RR4.opus
</region>

<region>
hivel=127
key=D4
lovel=85
sample=Horn_staccato_FF_D4_RR4.opus
</region>

<region>
hivel=127
key=D5
lovel=85
sample=Horn_staccato_FF_D5_RR4.opus
</region>

<region>
hivel=127
key=E3
lovel=85
sample=Horn_staccato_FF_E3_RR4.opus
</region>

<region>
hivel=127
key=E4
lovel=85
sample=Horn_staccato_FF_E4_RR4.opus
</region>

<region>
hivel=127
key=E5
lovel=85
sample=Horn_staccato_FF_E5_RR4.opus
</region>

<region>
hivel=127
key=F#2
lovel=85
sample=Horn_staccato_FF_F#2_RR4.opus
</region>

<region>
hivel=127
key=F#3
lovel=85
sample=Horn_staccato_FF_F#3_RR4.opus
</region>

<region>
hivel=127
key=F#4
lovel=85
sample=Horn_staccato_FF_F#4_RR4.opus
</region>

<region>
hikey=F2
hivel=127
lokey=C2
lovel=85
pitch_keycenter=F2
sample=Horn_staccato_FF_F2_RR4.opus
</region>

<region>
hivel=127
key=F3
lovel=85
sample=Horn_staccato_FF_F3_RR4.opus
</region>

<region>
hivel=127
key=F4
lovel=85
sample=Horn_staccato_FF_F4_RR4.opus
</region>

<region>
hikey=A#5
hivel=127
lokey=F5
lovel=85
pitch_keycenter=F5
sample=Horn_staccato_FF_F5_RR4.opus
</region>

<region>
hivel=127
key=G#2
lovel=85
sample=Horn_staccato_FF_G#2_RR4.opus
</region>

<region>
hivel=127
key=G#3
lovel=85
sample=Horn_staccato_FF_G#3_RR4.opus
</region>

<region>
hivel=127
key=G#4
lovel=85
sample=Horn_staccato_FF_G#4_RR4.opus
</region>

<region>
hivel=127
key=G2
lovel=85
sample=Horn_staccato_FF_G2_RR4.opus
</region>

<region>
hivel=127
key=G3
lovel=85
sample=Horn_staccato_FF_G3_RR4.opus
</region>

<region>
hivel=127
key=G4
lovel=85
sample=Horn_staccato_FF_G4_RR4.opus
</region>

<region>
hivel=84
key=A#2
lovel=43
sample=Horn_staccato_MF_A#2_RR4.opus
</region>

<region>
hivel=84
key=A#3
lovel=43
sample=Horn_staccato_MF_A#3_RR4.opus
</region>

<region>
hivel=84
key=A#4
lovel=43
sample=Horn_staccato_MF_A#4_RR4.opus
</region>

<region>
hivel=84
key=A2
lovel=43
sample=Horn_staccato_MF_A2_RR4.opus
</region>

<region>
hivel=84
key=A3
lovel=43
sample=Horn_staccato_MF_A3_RR4.opus
</region>

<region>
hivel=84
key=A4
lovel=43
sample=Horn_staccato_MF_A4_RR4.opus
</region>

<region>
hivel=84
key=B2
lovel=43
sample=Horn_staccato_MF_B2_RR4.opus
</region>

<region>
hivel=84
key=B3
lovel=43
sample=Horn_staccato_MF_B3_RR4.opus
</region>

<region>
hivel=84
key=B4
lovel=43
sample=Horn_staccato_MF_B4_RR4.opus
</region>

<region>
hivel=84
key=C#3
lovel=43
sample=Horn_staccato_MF_C#3_RR4.opus
</region>

<region>
hivel=84
key=C#4
lovel=43
sample=Horn_staccato_MF_C#4_RR4.opus
</region>

<region>
hivel=84
key=C#5
lovel=43
sample=Horn_staccato_MF_C#5_RR4.opus
</region>

<region>
hivel=84
key=C3
lovel=43
sample=Horn_staccato_MF_C3_RR4.opus
</region>

<region>
hivel=84
key=C4
lovel=43
sample=Horn_staccato_MF_C4_RR4.opus
</region>

<region>
hivel=84
key=C5
lovel=43
sample=Horn_staccato_MF_C5_RR4.opus
</region>

<region>
hivel=84
key=D#3
lovel=43
sample=Horn_staccato_MF_D#3_RR4.opus
</region>

<region>
hivel=84
key=D#4
lovel=43
sample=Horn_staccato_MF_D#4_RR4.opus
</region>

<region>
hivel=84
key=D#5
lovel=43
sample=Horn_staccato_MF_D#5_RR4.opus
</region>

<region>
hivel=84
key=D3
lovel=43
sample=Horn_staccato_MF_D3_RR4.opus
</region>

<region>
hivel=84
key=D4
lovel=43
sample=Horn_staccato_MF_D4_RR4.opus
</region>

<region>
hivel=84
key=D5
lovel=43
sample=Horn_staccato_MF_D5_RR4.opus
</region>

<region>
hivel=84
key=E3
lovel=43
sample=Horn_staccato_MF_E3_RR4.opus
</region>

<region>
hivel=84
key=E4
lovel=43
sample=Horn_staccato_MF_E4_RR4.opus
</region>

<region>
hivel=84
key=E5
lovel=43
sample=Horn_staccato_MF_E5_RR4.opus
</region>

<region>
hivel=84
key=F#2
lovel=43
sample=Horn_staccato_MF_F#2_RR4.opus
</region>

<region>
hivel=84
key=F#3
lovel=43
sample=Horn_staccato_MF_F#3_RR4.opus
</region>

<region>
hivel=84
key=F#4
lovel=43
sample=Horn_staccato_MF_F#4_RR4.opus
</region>

<region>
hikey=F2
hivel=84
lokey=C2
lovel=43
pitch_keycenter=F2
sample=Horn_staccato_MF_F2_RR4.opus
</region>

<region>
hivel=84
key=F3
lovel=43
sample=Horn_staccato_MF_F3_RR4.opus
</region>

<region>
hivel=84
key=F4
lovel=43
sample=Horn_staccato_MF_F4_RR4.opus
</region>

<region>
hikey=A#5
hivel=84
lokey=F5
lovel=43
pitch_keycenter=F5
sample=Horn_staccato_MF_F5_RR4.opus
</region>

<region>
hivel=84
key=G#2
lovel=43
sample=Horn_staccato_MF_G#2_RR4.opus
</region>

<region>
hivel=84
key=G#3
lovel=43
sample=Horn_staccato_MF_G#3_RR4.opus
</region>

<region>
hivel=84
key=G#4
lovel=43
sample=Horn_staccato_MF_G#4_RR4.opus
</region>

<region>
hivel=84
key=G2
lovel=43
sample=Horn_staccato_MF_G2_RR4.opus
</region>

<region>
hivel=84
key=G3
lovel=43
sample=Horn_staccato_MF_G3_RR4.opus
</region>

<region>
hivel=84
key=G4
lovel=43
sample=Horn_staccato_MF_G4_RR4.opus
</region>

<region>
hivel=42
key=A#2
lovel=0
sample=Horn_staccato_PP_A#2_RR4.opus
</region>

<region>
hivel=42
key=A#3
lovel=0
sample=Horn_staccato_PP_A#3_RR4.opus
</region>

<region>
hivel=42
key=A#4
lovel=0
sample=Horn_staccato_PP_A#4_RR4.opus
</region>

<region>
hivel=42
key=A2
lovel=0
sample=Horn_staccato_PP_A2_RR4.opus
</region>

<region>
hivel=42
key=A3
lovel=0
sample=Horn_staccato_PP_A3_RR4.opus
</region>

<region>
hivel=42
key=A4
lovel=0
sample=Horn_staccato_PP_A4_RR4.opus
</region>

<region>
hivel=42
key=B2
lovel=0
sample=Horn_staccato_PP_B2_RR4.opus
</region>

<region>
hivel=42
key=B3
lovel=0
sample=Horn_staccato_PP_B3_RR4.opus
</region>

<region>
hivel=42
key=B4
lovel=0
sample=Horn_staccato_PP_B4_RR4.opus
</region>

<region>
hivel=42
key=C#3
lovel=0
sample=Horn_staccato_PP_C#3_RR4.opus
</region>

<region>
hivel=42
key=C#4
lovel=0
sample=Horn_staccato_PP_C#4_RR4.opus
</region>

<region>
hivel=42
key=C#5
lovel=0
sample=Horn_staccato_PP_C#5_RR4.opus
</region>

<region>
hivel=42
key=C3
lovel=0
sample=Horn_staccato_PP_C3_RR4.opus
</region>

<region>
hivel=42
key=C4
lovel=0
sample=Horn_staccato_PP_C4_RR4.opus
</region>

<region>
hivel=42
key=C5
lovel=0
sample=Horn_staccato_PP_C5_RR4.opus
</region>

<region>
hivel=42
key=D#3
lovel=0
sample=Horn_staccato_PP_D#3_RR4.opus
</region>

<region>
hivel=42
key=D#4
lovel=0
sample=Horn_staccato_PP_D#4_RR4.opus
</region>

<region>
hivel=42
key=D#5
lovel=0
sample=Horn_staccato_PP_D#5_RR4.opus
</region>

<region>
hivel=42
key=D3
lovel=0
sample=Horn_staccato_PP_D3_RR4.opus
</region>

<region>
hivel=42
key=D4
lovel=0
sample=Horn_staccato_PP_D4_RR4.opus
</region>

<region>
hivel=42
key=D5
lovel=0
sample=Horn_staccato_PP_D5_RR4.opus
</region>

<region>
hivel=42
key=E3
lovel=0
sample=Horn_staccato_PP_E3_RR4.opus
</region>

<region>
hivel=42
key=E4
lovel=0
sample=Horn_staccato_PP_E4_RR4.opus
</region>

<region>
hivel=42
key=E5
lovel=0
sample=Horn_staccato_PP_E5_RR4.opus
</region>

<region>
hivel=42
key=F#2
lovel=0
sample=Horn_staccato_PP_F#2_RR4.opus
</region>

<region>
hivel=42
key=F#3
lovel=0
sample=Horn_staccato_PP_F#3_RR4.opus
</region>

<region>
hivel=42
key=F#4
lovel=0
sample=Horn_staccato_PP_F#4_RR4.opus
</region>

<region>
hikey=F2
hivel=42
lokey=C2
lovel=0
pitch_keycenter=F2
sample=Horn_staccato_PP_F2_RR4.opus
</region>

<region>
hivel=42
key=F3
lovel=0
sample=Horn_staccato_PP_F3_RR4.opus
</region>

<region>
hivel=42
key=F4
lovel=0
sample=Horn_staccato_PP_F4_RR4.opus
</region>

<region>
hikey=A#5
hivel=42
lokey=F5
lovel=0
pitch_keycenter=F5
sample=Horn_staccato_PP_F5_RR4.opus
</region>

<region>
hivel=42
key=G#2
lovel=0
sample=Horn_staccato_PP_G#2_RR4.opus
</region>

<region>
hivel=42
key=G#3
lovel=0
sample=Horn_staccato_PP_G#3_RR4.opus
</region>

<region>
hivel=42
key=G#4
lovel=0
sample=Horn_staccato_PP_G#4_RR4.opus
</region>

<region>
hivel=42
key=G2
lovel=0
sample=Horn_staccato_PP_G2_RR4.opus
</region>

<region>
hivel=42
key=G3
lovel=0
sample=Horn_staccato_PP_G3_RR4.opus
</region>

<region>
hivel=42
key=G4
lovel=0
sample=Horn_staccato_PP_G4_RR4.opus
</region>
</group>